# xmcd CD database file
#
# Track frame offsets:
#	150
#	22792
#	41019
#	65580
#	84312
#	99145
#	135363
#	156211
#	170713
#	186490
#	210782
#
# Disc length: 3278 seconds
#
# Revision: 0
# Processed by: cddbd v1.5.2PL0 Copyright (c) Steve Scherf et al.
# Submitted via: CDex 1.51
#
DISCID=820ccc0b
DTITLE=Ana Popovic Band - An Evening At Trasimeno Lake - Live From The Heart Of Italy
DYEAR=2010
DGENRE=Blues
TTITLE0=Wrong Woman (Live)
TTITLE1=Is This Everything There Is ? (Live)
TTITLE2=How'd You Learn To Shake It Like That (Live)
TTITLE3=Shadow After Dark (Live)
TTITLE4=Lives That Don't Exist (Live)
TTITLE5=Let Me Love You Babe (Live)
TTITLE6=Doubt Everyone But Me (Live)
TTITLE7=Blind For Love (Live)
TTITLE8=Get Back Home To You (Live)
TTITLE9=Love Fever (Live)
TTITLE10=Hold On (Live)
EXTD=YEAR: 2010
EXTT0=
EXTT1=
EXTT2=
EXTT3=
EXTT4=
EXTT5=
EXTT6=
EXTT7=
EXTT8=
EXTT9=
EXTT10=
PLAYORDER=
